<?xml version="1.0"?>
<svg xmlns:rdf="http://www.w3.org/1999/02/22-rdf-syntax-ns#" xmlns="http://www.w3.org/2000/svg" xmlns:cc="http://creativecommons.org/ns#" xmlns:dc="http://purl.org/dc/elements/1.1/" xmlns:svg="http://www.w3.org/2000/svg" id="svg2" viewBox="0 0 128 128" version="1.0">
  <g id="layer1">
    <path id="path2601" fill-rule="evenodd" fill="#5c2700" d="m62.094 24.344l-15.656 5.5-0.219 0.844-3.031 1.218-0.813-0.656-23.281 8.156 0.125 27.375 0.917 0.576-0.011 2.001-0.201 0.063-0.018 2.828 0.293 0.44-0.026 2.72-0.289 0.155-0.018 2.74 0.308 0.331-0.007 2.518-0.32 0.112-0.003 0.516 37.187 26.189 18.719-6.69-0.125-1.718 1.875-0.718 0.259-0.321 1.881-0.687 0.444 0.042 2.354-0.972 0.281-0.343 1.278-0.507 0.408 0.098 1.876-0.716 1.5 1.562 13.189-4.938 0.06-26.781-0.5-0.656v-1.594l0.16-0.312v-2.844l-0.19-0.25-0.05-2.497 0.24-0.409v-2.781l-0.2-0.225 0.01-1.651 0.56-0.531v-1.812l-4.966-3.375-0.688 0.187-1.5-1.281-0.125-0.469-29.5-20.062-1.125 0.375-1.062-0.75zm-0.094 0.531h0.031l1 0.594 1.25-0.094 28.969 19.625-0.125 0.875 1.406 0.094 0.031 1.469 1.313-0.657 4.285 2.907-42.941 14.812-36.813-24.844 21.969-7.781 1.531 2.313 0.125-2.219 1.375 0.187 0.156-0.906 1.907 0.344-0.657-1.313 14.282-5.062 1.906 2.062-0.719 1.657-1.281 0.968-2.906-0.062 0.062 0.094 2.5 0.406-0.25 1.312 0.188 0.063 0.375-1.313 0.343 0.063 1-0.875 1.563 1.594-1.063 1.687 0.094 0.031 1-1.281 1.313 0.219-0.313 3.062h0.125l0.438-2.937 1.625-0.188 0.062-0.031-1.625-0.125v-0.031l-1.25-0.469-1.687-1.719 0.781-1.844 1.25 0.688 0.125-0.031-1.219-1.031 0.031-0.063-1.562-2.25zm-42.156 15.313l37.125 25.156-0.063 23.281-4.781 3.063-1.813 2.187-4.937-0.063-2.437 1.126-1.157 1.437-14.5-10.031-0.843-4.125 0.531-2.688-2.5-3.25-0.719-6.156-3.719-3.469-0.187-26.468zm80.566 9.968v1.313l-3.004 1.969-0.968 4.031-3.157 2.312 0.031 2.813-0.031-0.032-1.312 1.563-2.281-0.063 0.062 0.188 2.156 0.219 0.782 1.093v-0.156l-0.438-1.031 1.438-1.469 4.593 0.906 2.059 1.438-0.12 26.562-11.908 4.126v-6.032l2.469-1.062 0.219-4.344c-0.248-0.448-0.621-0.559-1.125-0.562v-2.876l-1.563 0.469v-8.562h0.032l0.218-1.031h1.657l-0.031 0.031 1.718 1.343-1.312-1.656 0.594-0.656-0.126 0.031-0.812 0.531-1.531-0.25v-0.031l-1.531-1.281-0.063 0.125 1.219 1.25-0.875 1.094-12.719 5.093v22.063l-1.344-0.375-3.844 0.188-1.156-2.907-3.781-2.156-1.813-3.25-5.156-2.5-0.062-22.75 1.218 1.063-0.187 1.374 0.625-1.25 1.719 0.438 2.719-1.5 0.437-0.062 2.906 0.593 1.625 2.125 0.219-0.031-1.781-2.219h-0.032l-0.031-0.031-1.906-0.625 2.281-0.406 1.5-1.813-0.094-0.062-1.593 1.5-3.657 0.593-2.5 1.5-1.874-0.5-1-1.406 42.222-15zm-0.19 1.844v2.125l-1.97 0.625v2.812l1.97-0.656 0.03 3.188-2.344 0.781v2.563l-0.344-0.063v-2.281l-3.906 1.281-0.031-0.156 1.031-0.344v-2.75l-0.218 0.063 0.812-0.563 2.656-0.906v-2.75l-0.531 0.187 0.063-0.218 2.622-0.907v-1.937l0.16-0.094zm-0.314 0.219l0.032 1.719-2.469 0.843 0.343-1.125 2.094-1.437zm-70.156 1.031l0.125 14.281 10.687 6.625 0.75 1.75-1.187 1.469 0.875 1.219 0.156 0.125-0.594-1.313 1-1.281 1.469 0.406 0.688 3.969 1.687 0.625-0.031-0.219-1.469-0.375-0.437-3.687 2 0.781 0.656 1.375 0.125-0.031-0.312-1.407 0.937-0.687-0.094 0.031-1.281 0.344-2.25-1.188v0.063l-1.344-0.125-0.468-1.625-0.063-12.406 1.969-1.407 0.75 0.469 1.187 2.469 0.188 0.125-0.813-2.406 1.125-0.375v-0.094l-1.25 0.156-0.031-0.125-1.156-0.593-2.438 0.781-11.156-7.719zm70.69 1l0.03 2.438-2.064 0.718v-2.531l2.034-0.625zm-69.94 0.25l1.375 0.969v10.469l-1.313 0.624-0.062-12.062zm67.25 0.656l0.031 2.469-2.156 0.75 1-0.687 0.687-2.376 0.438-0.156zm-65.438 0.625l0.438 0.313v10.031l-0.438-0.281v-10.063zm0.75 0.563l1.594 1.125 0.032 10.25c-0.668 1.228-1.653 0.34-1.626-0.344v-11.031zm66.998 0.906l-5.091 1.656 0.031 2.813 5.06-1.719v-2.75zm-0.185 0.188l0.031 2.468-4.781 1.625v-2.5l4.75-1.593zm-64.906 0.25l2.031 1.468v9.844l-2.031-1.344v-9.968zm59.5 1.624l0.031 2.469-0.875 0.281-0.219-2.156 0.688-0.468 0.375-0.126zm-57.157 0.063l1.594 1.125 0.032 9.875c-0.668 1.228-1.653 0.34-1.626-0.344v-10.656zm63.218 0.781l-0.03 2.5-2.344 0.813h-0.094l-0.031-2.5 2.499-0.813zm-61.311 0.563l1.469 1.062v9.719l-1.469-1.031v-9.75zm58.187 0.531l0.032 2.094-3.75-0.656-0.032-0.188 3.75-1.25zm2.844 1.625v1.969l-0.19-0.156v-1.563l-1.404 0.469-0.062-0.032-0.032-0.031h-0.156l1.844-0.656zm-0.344 0.437l0.032 1.282-1.188-0.906 1.156-0.376zm-67.781 3.032l0.625 0.437v0.657c-0.088 0.362 1.061 1.941 2.031 0.75l2.219 1.5v0.406c-0.084 0.348 0.964 1.808 1.906 0.875l1.782 1.25v1.437l-10.063-6.687 1.5-0.625zm-11.844 0.937l0.125 0.125v2.219l3.156 2.156 0.032 0.125-0.032-0.031v2.844l0.469 0.312 0.031 0.281-3.687-2.593v2.812l5.063 3.5v-0.969l0.218 0.313v0.75l0.938 0.625-0.032 0.188-3.343-2.344v2.812l3.093 2.156 0.032 0.157-0.656-0.469v2.812l1.218 0.844 0.032 0.188-6.594-4.625v-3.031l2.687 1.874v-2.75l-2.719-1.906v-3.187l3.063 2.125v-2.75l-3.094-2.156v-2.407zm0.281 0.281l2.813 2.844 0.187 1.25-3-2.062v-2.032zm-0.524 2.149l3.181 2.164 0.031 2.469-3.225-2.133 0.013-2.5zm3.681 3.133l0.281 2.031-0.281-0.187v-1.844zm-3.188 0.125l3.563 2.5 0.125 0.937 1.093 1.5v0.875l-4.781-3.281v-2.531zm67 0.093v9.032c-0.34-0.253-0.746-0.083-0.969 0.062l0.032-8.718 0.937-0.376zm-1.437 0.594l-0.032 8.5-1.5 0.594v2.969l1.469-0.469v0.125c-0.41 0.202-0.864 0.422-1.281 0.656l1.281 2.531-0.031 6.561-1.575 0.594 0.013-3.811 1.468-0.562v-2.969l-0.312-0.344-1.188 0.407-0.031-6.407 1.531-0.593v-2.969l-0.312-0.344-1.25 0.437-0.032-4.187 1.782-0.719zm-2.156 0.875v4.157l-1.626 0.562-0.031-4.031 1.657-0.688zm-2.032 0.844v4.031l-2 0.688-0.031-3.875 2.031-0.844zm-61.859 0.252l2.797 1.935 0.031 2.5-2.841-1.913 0.013-2.522zm59.453 0.748l0.031 3.844-2.187 0.75-0.032-3.688 2.188-0.906zm-2.562 1.063l0.031 3.656-1.344 0.468v-3.593l1.313-0.531zm-53.563 0.406l3.156 2.25-0.281 2 0.062 0.344-2.937-2.032v-2.562zm62.094 0.562v0.219l-9.844 3.437v-0.187l9.844-3.469zm-59.657 0.188l0.782 1.062-0.782-0.531v-0.531zm-5.406 0.062v2.813l5.063 3.469v-2.75l-5.063-3.532zm0.156 0.25l4.75 3.313 0.032 2.5-4.782-3.281v-2.532zm64.813 0.156l0.063 1.907-9.813 3.812v-2.031l9.75-3.688zm4.375 2.188l-0.013 2.688-0.706 0.093-0.219-0.437c0.149-0.236 0.262-0.524 0.438-0.844-0.064-0.292-0.201-0.565-0.688-0.375-0.063 0.156-0.145 0.274-0.218 0.375l-0.032-0.062v-0.938l1.438-0.5zm-5.781 0.938v6.406l-1.594 0.531-0.031-6.313 1.625-0.624zm2.093 0.124v0.188c-0.35 0.315-0.593 0.742-0.562 1.188-0.131-0.038-0.239-0.065-0.406-0.094-0.312 0.378-0.113 0.621 0.094 1 0.326 0.172 0.576 0.187 0.812 0.156l0.031 0.062v0.25l-1.343 0.469v-2.656l1.374-0.563zm0.844 0.157c0.44-0.05 0.903 0.21 1.156 0.437l0.063 0.063c-0.05 0.041-0.102 0.09-0.156 0.125l-0.063-0.094c-0.222-0.116-0.442-0.176-0.625-0.188-0.537-0.032-0.877 0.358-1.125 1.032-0.085-0.003-0.168-0.015-0.25-0.032 0.181-0.944 0.572-1.295 1-1.343zm-61.094 0.031l0.563 0.406 0.5 2.813-1.031-0.688-0.032-2.531zm62.876 0.062c0.139 0.028 0.289 0.006 0.312 0.313-0.161 0.459-0.372 0.858-0.906 1.031-0.185-0.107-0.584 0.038-0.438-0.406 0.483-0.224 0.8-0.549 1.032-0.938zm-6.75 0.407v6.312l-1.938 0.688-0.062-6.219 2-0.781zm5.031 0.187c0.194-0.009 0.413 0.11 0.625 0.188-0.105 0.06-0.193 0.102-0.313 0.187 0.026 0.244 0.113 0.357 0.25 0.438l-0.031 0.719c-0.188 0.087-0.387 0.185-0.562 0.281l-0.219-0.438c0.097-0.035 0.169-0.062 0.281-0.093 0.164-0.251 0.258-0.506-0.219-0.719-0.133 0.054-0.235 0.073-0.343 0.093 0.12-0.489 0.326-0.645 0.531-0.656zm1.687 0.625l0.5 0.719c-0.175 0.408-0.265 0.297-0.375 0.312l-0.406-0.812c0.111-0.064 0.207-0.14 0.281-0.219zm-3.312 0.031c0.498 0.188 0.967 0.201 1.406 0.094 0.078 0.119 0.234 0.238 0.031 0.469-0.44 0.207-0.908 0.322-1.406 0.063-0.053-0.207-0.45-0.419-0.031-0.626zm-5.813 0.094l0.031 6.188-2.124 0.75-0.063-6.094 2.156-0.844zm10.25 0.344c0.531-0.055 0.746 0.113 0.719 0.406l-4.719 1.625-0.375-0.25 0.938-0.562 0.156 0.312c0.365 0.045 0.656-0.04 0.812-0.343l-0.156-0.219c0.306-0.326 0.783-0.385 1.219-0.563l0.219 0.375c0.379 0.132 0.61-0.082 0.781-0.437l-0.156-0.25 0.562-0.094zm-3.219 0.344l0.438 0.75c-0.088 0.174-0.156 0.324-0.312 0.156l-0.407-0.812c0.087-0.027 0.19-0.06 0.281-0.094zm-9.593 0.312l0.031 6.094-1.375 0.469v-6.063l1.344-0.5zm13.593 0.188l-0.156 3.468-2.312 0.907-1.656-2.969 4.124-1.406zm-5.25 1.281l0.594 0.187 1.875 3.188c-0.318 0.165-0.818-0.067-1-0.312l-1.469-3.063zm3.469 0.031c-0.194-0.005-0.399 0.136-0.593 0.625 0.124 0.286 0.275 0.596 0.75 0.531l0.124 0.907 0.719-0.281-0.656-0.844c0.578-0.072 0.366-0.385 0.25-0.688-0.194-0.079-0.4-0.244-0.594-0.25zm-3.312 1.906v0.219l-9.844 3.438v-0.188l9.844-3.469zm-28.469 0.626l0.219 0.124v0.282l-0.407-0.282 0.188-0.124zm28.375 0.031l0.063 1.906-9.813 3.813v-2.032l9.75-3.687zm-27.937 0.031l0.437 0.188-0.437 0.124v-0.312zm-0.75 0.125l0.619 0.388v2.522l-1.869-1.285v-0.781l1.25-0.844zm1.374 0.156l1.313 0.625 0.031 1.406-1.968 0.688v-2.522l0.624-0.197zm28.5 0.313c0.295 0.21 0.571 0.46 0.938 0.531v6l-0.969-1.094 0.031-5.437zm-27.031 0.375l0.25 0.125v1.125l1.407-0.469 0.312 0.156-3.875 1.282v2.812l5.063-1.719v-1.719l0.343 0.626v0.937l0.438-0.156 0.125 0.187-3.75 1.219v2.813l5.062-1.719v-0.657l0.25 0.157v0.312l0.344-0.125 0.25 0.156-2.719 0.907v2.812l5.063-1.719v-0.531l0.281 0.625-3.031 1v2.814l4.062-1.376 0.032 0.031h0.124l-1.218 0.375v2.81l5.062-1.72v-1.809h0.094v1.779l1.25-0.43v0.06l-17.25 6.09v-3l2.188-0.75v-2.75l-2.219 0.72v-3.219l2.031-0.687v-2.75l-2.031 0.687-0.031-3.156 2.093-0.719v-1.437zm-4.25 0.125v0.687l1.938 1.344v3.125l-2.094-1.469v2.813l2.125 1.468v3.128l-2.344-1.659 0.032 2.809 2.312 1.6v0.28l-4.969-3.5v2.81l4.969 3.44v0.06l-15.125-10.405 0.063-0.094 4.718 3.281v-2.75l-3.125-2.187 0.688-0.375v0.656l5.062 3.469v-2.75l-2.687-1.875h0.25l4.844 3.312v-2.75l-1.188-0.843 0.094-0.094 4.156 2.875v-2.75l-2.531-1.781 0.031-0.031 0.062-0.032 4.5 3.125v-2.75l-2.468-1.75 0.187-0.125 0.344 0.25v-0.468l0.156-0.094zm4.657 0.062l1.093 0.532-1.093 0.343v-0.875zm-4.938 0.125v0.157l-0.125-0.094 0.125-0.063zm-0.5 0.313l2.406 1.718 0.032 2.5-4.313-2.968 1.875-1.25zm7.219 0.406l0.812 0.375 0.031 1.813-4.781 1.624v-2.531l3.938-1.281zm-9.313 1.031l2.438 1.719 0.031 2.5-3.969-2.719 1.5-1.5zm31.594 0.063v3.625l-1.562 0.593-0.032-3.624 1.594-0.594zm-20.812 0.375l0.218 0.406-0.218 0.063v-0.469zm18.781 0.406l0.022 3.89-1.951 0.719-0.009-3.859 1.938-0.75zm-18.313 0.406l0.656 1.157 0.469 0.281v0.656l-4.781 1.625v-2.531l3.656-1.188zm-13 0.531l1.125 0.782 0.031 2.5-4.531-3.094h3.188l0.187-0.188zm28.906 0l0.032 3.594-2.094 0.782-0.031-3.594 2.093-0.782zm-34.187 0.188h1.25l2.75 1.906 0.031 2.5-4.781-3.281v-0.719l0.75-0.406zm9.906 0.031l2.048 1.41-0.066 2.497-1.982-1.344v-2.563zm-3.219 0.594l0.032 2.813 5.062 3.502v-2.752l-5.094-3.563zm7.282 0.156l0.031 2.469-1.995 0.678 0.022-2.478 1.942-0.669zm17.656 0l0.12 3.793-1.473 0.509-0.022-3.771 1.375-0.531zm-24.781 0.094l4.781 3.313 0.031 2.502-4.781-3.284-0.031-2.531zm-8.563 0.063l3.063 2.156 0.031 2.468-4.531-3.093 0.937-1.25 0.5-0.281zm22.25 0.5l2.063 1.281v0.5l-4.781 1.656v-2.531l2.718-0.906zm-16.187 0.5v2.812l5.062 3.5v-2.75l-5.062-3.562zm0.156 0.25l4.75 3.312 0.031 2.5-4.781-3.281v-2.531zm12.813 0.25l-5.063 1.656v2.816l5.063-1.722v-2.75zm-0.157 0.187l0.031 2.469-4.781 1.656v-2.531l4.75-1.594zm-15.437 0.469v2.844l5.062 3.472v-2.75l-5.062-3.566zm0.156 0.25l4.75 3.346 0.031 2.5-4.781-3.284v-2.562zm21.156 0.156l0.938 2.188-3.844 1.342-0.031-2.53 2.937-1zm-3.312 1.156l-5.063 1.654v2.81l5.063-1.71v-2.754zm-0.156 0.156l0.031 2.468-4.781 1.66-0.032-2.53 4.782-1.598zm8.312 0.688l0.031 1.75-4.781 1.63v-2.54l1.625-0.528 3.125-0.312zm0.406 0.094l1.094 0.312v0.844l-1.094 0.37v-1.526zm-18.594 0.187l2.276 1.599v2.43l-2.276-1.5v-2.529zm13.032 0.719l-5.063 1.66v2.81l5.063-1.72v-2.75zm-8.563 0.19l0.031 2.47-2.062 0.74-0.031-2.52 2.062-0.69zm8.407 0l0.031 2.47-4.781 1.62v-2.53l4.75-1.56zm-15.5 0.28l4.838 3.36 0.053 2.5-4.891-3.33v-2.53zm10.25 1.41l-5.063 1.65v2.81l5.063-1.72v-2.74zm-0.157 0.18l0.031 2.47-4.781 1.63v-2.54l4.75-1.56z"/>
  </g>
  <metadata>
    <rdf:RDF>
      <cc:Work>
        <dc:format>image/svg+xml</dc:format>
        <dc:type rdf:resource="http://purl.org/dc/dcmitype/StillImage"/>
        <cc:license rdf:resource="http://creativecommons.org/licenses/publicdomain/"/>
        <dc:publisher>
          <cc:Agent rdf:about="http://openclipart.org/">
            <dc:title>Openclipart</dc:title>
          </cc:Agent>
        </dc:publisher>
        <dc:title>RPG map symbols: Jailhouse</dc:title>
        <dc:date>2008-01-28T14:26:56</dc:date>
        <dc:description>Part of the fantasy RPG map elements collection (houses and various buildings): a Jail House</dc:description>
        <dc:source>http://openclipart.org/detail/12049/rpg-map-symbols:-jailhouse-by-nicubunu-12049</dc:source>
        <dc:creator>
          <cc:Agent>
            <dc:title>nicubunu</dc:title>
          </cc:Agent>
        </dc:creator>
        <dc:subject>
          <rdf:Bag>
            <rdf:li>building</rdf:li>
            <rdf:li>cartography</rdf:li>
            <rdf:li>clip art</rdf:li>
            <rdf:li>clipart</rdf:li>
            <rdf:li>fantasy</rdf:li>
            <rdf:li>geography</rdf:li>
            <rdf:li>image</rdf:li>
            <rdf:li>jail</rdf:li>
            <rdf:li>map</rdf:li>
            <rdf:li>media</rdf:li>
            <rdf:li>png</rdf:li>
            <rdf:li>prison</rdf:li>
            <rdf:li>public domain</rdf:li>
            <rdf:li>svg</rdf:li>
          </rdf:Bag>
        </dc:subject>
      </cc:Work>
      <cc:License rdf:about="http://creativecommons.org/licenses/publicdomain/">
        <cc:permits rdf:resource="http://creativecommons.org/ns#Reproduction"/>
        <cc:permits rdf:resource="http://creativecommons.org/ns#Distribution"/>
        <cc:permits rdf:resource="http://creativecommons.org/ns#DerivativeWorks"/>
      </cc:License>
    </rdf:RDF>
  </metadata>
</svg>
